<?xml version="1.0" standalone="no"?>
<!DOCTYPE svg PUBLIC "-//W3C//DTD SVG 20010904//EN"
 "http://www.w3.org/TR/2001/REC-SVG-20010904/DTD/svg10.dtd">
<svg version="1.0" xmlns="http://www.w3.org/2000/svg"
 width="561.000000pt" height="561.000000pt" viewBox="0 0 561.000000 561.000000"
 preserveAspectRatio="xMidYMid meet">
<metadata>
Created by potrace 1.11, written by Peter Selinger 2001-2013
</metadata>
<g transform="translate(0.000000,561.000000) scale(0.100000,-0.100000)"
fill="#000000" stroke="none">
<path d="M4120 5605 c-2 -5 -4 -27 -5 -49 -2 -32 -12 -48 -63 -100 -33 -33
-76 -79 -95 -100 -31 -36 -40 -40 -86 -42 -59 -3 -101 9 -101 29 0 7 -6 21
-13 32 -13 16 -14 16 -10 -11 3 -16 -2 -48 -10 -71 -8 -22 -13 -54 -11 -69 2
-18 -4 -37 -17 -51 -12 -12 -18 -27 -14 -33 4 -6 4 -36 0 -65 l-6 -54 -65 -31
c-62 -29 -66 -30 -100 -15 -20 8 -56 17 -80 19 -39 4 -48 0 -106 -46 -35 -27
-74 -58 -87 -68 -15 -12 -29 -42 -43 -92 -10 -40 -23 -77 -28 -82 -5 -5 -21
12 -37 40 -15 27 -46 65 -67 84 -21 19 -52 47 -68 62 l-29 28 -39 -20 c-37
-19 -40 -19 -52 -2 -7 9 -26 23 -41 30 -15 7 -26 16 -23 20 3 5 -2 19 -11 32
-9 12 -17 38 -18 57 -2 42 -21 56 -50 37 -19 -12 -22 -11 -39 20 l-18 34 -37
-15 c-46 -19 -110 -82 -116 -114 -7 -40 -87 -187 -104 -192 -27 -7 -40 3 -87
65 -56 72 -62 72 -173 -1 -11 -7 -10 -14 4 -39 17 -29 17 -32 1 -57 -20 -30
-48 -44 -54 -27 -7 21 -26 13 -57 -24 -17 -20 -45 -53 -63 -73 -42 -46 -51
-70 -50 -127 0 -29 -5 -51 -15 -61 -14 -15 -18 -15 -40 0 -14 9 -32 37 -42 64
-25 73 -54 128 -89 170 -18 21 -38 54 -46 73 -7 19 -15 37 -16 38 -6 8 -126
-81 -151 -113 -15 -19 -50 -78 -78 -132 -39 -75 -56 -99 -75 -104 -14 -3 -30
-2 -36 3 -13 10 -24 -63 -29 -192 -3 -92 -10 -143 -25 -170 -9 -16 -6 -64 5
-100 3 -9 17 -22 31 -29 18 -8 24 -17 20 -28 -10 -24 19 -60 59 -74 19 -7 35
-20 36 -29 1 -8 2 -37 4 -65 1 -27 8 -63 14 -78 6 -16 11 -46 11 -67 0 -21 5
-51 11 -67 15 -40 18 -281 4 -318 -17 -44 -11 -151 9 -174 14 -15 16 -32 13
-82 -3 -34 0 -76 5 -93 6 -17 11 -49 13 -71 2 -22 3 -43 4 -48 1 -4 12 -12 26
-17 37 -14 61 -61 74 -145 7 -41 17 -77 22 -81 5 -3 20 -27 34 -53 13 -27 37
-63 52 -82 15 -18 23 -30 17 -26 -13 8 -22 -42 -24 -140 -1 -43 3 -63 11 -63
17 0 99 -89 111 -120 5 -14 12 -50 15 -81 l5 -55 -80 -53 c-48 -32 -82 -61
-86 -74 -8 -34 4 -202 15 -206 6 -2 14 -14 19 -27 5 -13 16 -24 25 -24 8 0 15
-3 15 -7 0 -5 21 -21 48 -37 26 -16 57 -38 69 -49 16 -14 29 -17 52 -12 17 4
39 1 52 -6 20 -10 26 -8 46 16 21 23 30 27 59 22 32 -5 74 -38 74 -57 0 -4 -6
-25 -14 -47 -7 -21 -12 -52 -11 -68 3 -22 -4 -36 -29 -60 -18 -17 -36 -43 -40
-59 -4 -16 -16 -30 -26 -33 -12 -3 -20 -14 -20 -27 -2 -78 -10 -260 -15 -303
-3 -30 -1 -54 5 -58 6 -3 10 -14 10 -24 0 -9 13 -35 30 -57 16 -22 31 -54 34
-70 2 -16 8 -49 12 -74 4 -25 8 -49 9 -55 0 -5 -16 -32 -37 -60 -34 -45 -36
-51 -21 -62 22 -17 39 -16 93 6 35 14 51 16 74 8 20 -7 38 -7 61 2 46 16 91
-10 107 -62 12 -39 48 -67 80 -62 31 5 41 -21 34 -89 -9 -94 23 -161 39 -84
13 62 44 77 62 31 l10 -28 12 31 c7 17 24 37 38 43 31 14 30 15 36 -29 3 -19
10 -47 15 -62 11 -27 32 -47 32 -29 0 5 11 8 25 6 14 -1 29 3 33 10 4 6 16 14
27 17 11 3 28 9 38 13 12 5 17 2 17 -9 0 -20 19 -21 26 -2 3 8 12 12 20 9 9
-3 14 1 14 13 0 10 12 30 26 45 22 23 27 38 28 89 2 35 -2 83 -6 109 -5 25
-11 84 -13 131 -2 53 -11 110 -25 150 -29 87 -31 97 -19 128 6 15 13 79 16
142 5 127 15 150 65 150 15 0 28 -4 28 -10 0 -5 18 -21 39 -34 33 -21 42 -35
56 -82 9 -31 15 -68 15 -83 -1 -14 -1 -48 -1 -76 2 -46 3 -48 16 -31 12 16 19
18 40 8 14 -6 25 -18 25 -26 0 -19 28 -34 55 -30 26 4 42 -11 50 -47 7 -32 23
-47 29 -27 2 7 7 22 11 33 16 43 13 83 -6 88 -28 7 -24 48 11 117 37 74 49
168 26 221 -17 42 -31 54 -69 63 -20 5 -29 14 -33 35 -7 32 -27 42 -77 35 -18
-2 -49 -6 -71 -9 -21 -3 -43 -8 -50 -12 -6 -3 4 9 21 27 18 18 31 36 28 40 -3
5 6 21 20 36 16 17 23 34 19 43 -3 9 -9 41 -13 72 -4 31 -16 69 -26 85 -11 16
-28 45 -38 64 -11 19 -35 48 -54 64 -19 16 -44 49 -54 73 -22 52 -22 53 -5 76
11 14 32 19 92 23 87 6 98 12 122 63 12 25 25 37 42 39 13 2 33 10 44 18 12 8
45 14 76 14 83 1 136 28 160 85 13 29 18 58 14 79 -6 40 20 77 58 81 38 4 48
13 48 39 0 34 19 82 62 157 27 47 40 83 44 125 4 32 11 65 16 71 6 7 8 19 5
28 -4 8 -2 17 4 21 6 3 9 16 8 27 -4 39 32 99 46 77 29 -47 48 47 47 239 -1
149 1 167 19 193 11 15 17 28 12 28 -4 0 3 7 15 16 12 8 22 21 21 27 -1 7 3
25 9 40 7 16 12 50 12 76 0 41 4 49 24 59 14 6 32 27 41 46 10 20 21 36 26 36
5 0 9 9 9 19 0 11 4 22 8 25 5 3 14 29 21 59 12 56 8 128 -11 183 -8 23 -8 44
2 80 7 27 14 62 16 77 1 16 5 45 9 65 16 80 17 112 9 165 -6 35 -3 42 28 70
l35 32 1 160 c1 88 3 189 6 225 2 36 0 70 -4 75 -5 6 0 30 12 55 30 67 44 201
42 420 -2 208 -6 229 -53 288 -23 28 -31 50 -33 87 -3 51 -10 57 -48 41 -11
-5 -19 2 -27 21 -6 15 -12 24 -13 18z"/>
<path d="M3429 1738 c-26 -19 -29 -20 -85 -5 -33 8 -63 11 -68 7 -14 -13 1
-40 23 -40 21 0 36 -26 21 -35 -19 -12 -10 -62 21 -119 21 -39 30 -66 27 -87
-3 -16 -1 -32 4 -35 4 -3 8 -13 8 -23 0 -10 7 -24 15 -31 8 -7 15 -20 15 -29
0 -25 36 -44 60 -31 16 9 25 6 44 -13 18 -18 32 -23 53 -19 41 8 51 23 58 86
5 46 2 64 -16 102 -17 32 -20 47 -12 52 7 4 15 41 18 82 5 63 3 81 -13 109
-20 36 -73 64 -80 43 -5 -15 -52 -16 -52 -2 0 15 -12 11 -41 -12z"/>
</g>
</svg>
